<?xml version="1.0" encoding="us-ascii" standalone="no"?><svg xmlns="http://www.w3.org/2000/svg" xmlns:xlink="http://www.w3.org/1999/xlink" contentStyleType="text/css" height="69px" preserveAspectRatio="none" style="width:114px;height:69px;background:#FFFFFF;" version="1.1" viewBox="0 0 114 69" width="114px" zoomAndPan="magnify"><defs/><g><!--class AppContainer--><g id="elem_AppContainer"><rect codeLine="4" fill="#F1F1F1" height="48" id="AppContainer" rx="2.5" ry="2.5" style="stroke:#181818;stroke-width:0.5;" width="93" x="7" y="7"/><ellipse cx="22" cy="23" fill="#ADD1B2" rx="11" ry="11" style="stroke:#181818;stroke-width:1.0;"/><path d="M24.7656,18.875 Q24.9219,18.6563 25.1094,18.5469 Q25.2969,18.4375 25.5156,18.4375 Q25.8906,18.4375 26.125,18.6953 Q26.3594,18.9531 26.3594,19.5625 L26.3594,21.0156 Q26.3594,21.625 26.125,21.8906 Q25.8906,22.1563 25.5156,22.1563 Q25.1719,22.1563 24.9688,21.9531 Q24.7656,21.7656 24.6563,21.25 Q24.6094,20.8906 24.4219,20.7031 Q24.0938,20.3281 23.4844,20.1094 Q22.875,19.8906 22.25,19.8906 Q21.4844,19.8906 20.8516,20.2188 Q20.2188,20.5469 19.7266,21.2969 Q19.2344,22.0469 19.2344,23.0781 L19.2344,24.1719 Q19.2344,25.4063 20.125,26.2266 Q21.0156,27.0469 22.6094,27.0469 Q23.5469,27.0469 24.2031,26.7969 Q24.5938,26.6406 25.0156,26.2031 Q25.2813,25.9375 25.4297,25.8594 Q25.5781,25.7813 25.7813,25.7813 Q26.1094,25.7813 26.3672,26.0391 Q26.625,26.2969 26.625,26.6406 Q26.625,26.9844 26.2813,27.3906 Q25.7813,27.9688 24.9844,28.2969 Q23.9063,28.75 22.6094,28.75 Q21.0938,28.75 19.8906,28.125 Q18.9063,27.625 18.2188,26.5547 Q17.5313,25.4844 17.5313,24.2031 L17.5313,23.0469 Q17.5313,21.7188 18.1484,20.5703 Q18.7656,19.4219 19.8594,18.8047 Q20.9531,18.1875 22.1875,18.1875 Q22.9219,18.1875 23.5703,18.3516 Q24.2188,18.5156 24.7656,18.875 Z " fill="#000000"/><text fill="#000000" font-family="sans-serif" font-size="14" lengthAdjust="spacing" textLength="61" x="36" y="28.7285">Aplica&#231;&#227;o</text><line style="stroke:#181818;stroke-width:0.5;" x1="8" x2="99" y1="39" y2="39"/><line style="stroke:#181818;stroke-width:0.5;" x1="8" x2="99" y1="47" y2="47"/></g><!--SRC=[Kqn9JSlCIrK8SdKESVHpzt5LICv9B2xcua88A3aMv6Gc9nvUVdXnlf92Oh62Oq61StvUII9GNv52DLSj5m00]--></g></svg>