<?xml version="1.0" encoding="us-ascii" standalone="no"?><svg xmlns="http://www.w3.org/2000/svg" xmlns:xlink="http://www.w3.org/1999/xlink" contentStyleType="text/css" height="1207.2917px" preserveAspectRatio="none" style="width:772px;height:1207px;" version="1.1" viewBox="0 0 772 1207" width="772.9167px" zoomAndPan="magnify"><defs><filter height="300%" id="f13tbg8kybko8c" width="300%" x="-1" y="-1"><feGaussianBlur result="blurOut" stdDeviation="2.0833333333333335"/><feColorMatrix in="blurOut" result="blurOut2" type="matrix" values="0 0 0 0 0 0 0 0 0 0 0 0 0 0 0 0 0 0 .4 0"/><feOffset dx="4.166666666666667" dy="4.166666666666667" in="blurOut2" result="blurOut3"/><feBlend in="SourceGraphic" in2="blurOut3" mode="normal"/></filter></defs><g><rect fill="none" height="58.6528" id="_title" rx="4.1667" ry="4.1667" style="stroke:#CCCCCC;stroke-width:1.0416666666666667;" width="590.625" x="98.1771" y="20.8333"/><text fill="#2196F3" font-family="Verdana" font-size="20.8333" font-weight="bold" lengthAdjust="spacing" textLength="557.2917" x="114.8438" y="58.4452">Diagrama de Sequ&#234;ncia para Cria&#231;&#227;o de Boletos</text><rect fill="none" filter="url(#f13tbg8kybko8c)" height="566.4164" rx="4.1667" ry="4.1667" style="stroke:#2196F3;stroke-width:1.0416666666666667;" width="734.8958" x="20.8333" y="413.7777"/><rect fill="none" filter="url(#f13tbg8kybko8c)" height="303.3915" rx="4.1667" ry="4.1667" style="stroke:#2196F3;stroke-width:1.0416666666666667;" width="714.0625" x="31.25" y="530.186"/><line style="stroke:#CCCCCC;stroke-width:1.0416666666666667;stroke-dasharray:5.0,5.0;" x1="97.9167" x2="97.9167" y1="193.6361" y2="1099.1191"/><line style="stroke:#CCCCCC;stroke-width:1.0416666666666667;stroke-dasharray:5.0,5.0;" x1="376.5625" x2="376.5625" y1="193.6361" y2="1099.1191"/><line style="stroke:#CCCCCC;stroke-width:1.0416666666666667;stroke-dasharray:5.0,5.0;" x1="530.7292" x2="530.7292" y1="193.6361" y2="1099.1191"/><line style="stroke:#CCCCCC;stroke-width:1.0416666666666667;stroke-dasharray:5.0,5.0;" x1="691.1458" x2="691.1458" y1="193.6361" y2="1099.1191"/><text fill="#2196F3" font-family="Verdana" font-size="12.5" lengthAdjust="spacing" textLength="85.4167" x="52.0833" y="180.5949">ContasPagar</text><ellipse cx="97.9167" cy="100.3194" fill="none" filter="url(#f13tbg8kybko8c)" rx="8.3333" ry="8.3333" style="stroke:#2196F3;stroke-width:1.0416666666666667;"/><path d="M97.9167,108.6528 L97.9167,136.7778 M84.375,116.9861 L111.4583,116.9861 M97.9167,136.7778 L84.375,152.4028 M97.9167,136.7778 L111.4583,152.4028 " fill="none" filter="url(#f13tbg8kybko8c)" style="stroke:#2196F3;stroke-width:1.0416666666666667;"/><text fill="#2196F3" font-family="Verdana" font-size="12.5" lengthAdjust="spacing" textLength="85.4167" x="52.0833" y="1121.0612">ContasPagar</text><ellipse cx="97.9167" cy="1143.4774" fill="none" filter="url(#f13tbg8kybko8c)" rx="8.3333" ry="8.3333" style="stroke:#2196F3;stroke-width:1.0416666666666667;"/><path d="M97.9167,1151.8107 L97.9167,1179.9357 M84.375,1160.144 L111.4583,1160.144 M97.9167,1179.9357 L84.375,1195.5607 M97.9167,1179.9357 L111.4583,1195.5607 " fill="none" filter="url(#f13tbg8kybko8c)" style="stroke:#2196F3;stroke-width:1.0416666666666667;"/><rect fill="none" filter="url(#f13tbg8kybko8c)" height="50.6083" rx="4.1667" ry="4.1667" style="stroke:#2196F3;stroke-width:1.0416666666666667;" width="60.4167" x="345.3125" y="138.8611"/><text fill="#2196F3" font-family="Verdana" font-size="12.5" lengthAdjust="spacing" textLength="25" x="363.0208" y="169.1366">SAP</text><rect fill="none" filter="url(#f13tbg8kybko8c)" height="50.6083" rx="4.1667" ry="4.1667" style="stroke:#2196F3;stroke-width:1.0416666666666667;" width="60.4167" x="345.3125" y="1098.0774"/><text fill="#2196F3" font-family="Verdana" font-size="12.5" lengthAdjust="spacing" textLength="25" x="363.0208" y="1128.3529">SAP</text><rect fill="none" filter="url(#f13tbg8kybko8c)" height="50.6083" rx="4.1667" ry="4.1667" style="stroke:#2196F3;stroke-width:1.0416666666666667;" width="53.125" x="502.6042" y="138.8611"/><text fill="#2196F3" font-family="Verdana" font-size="12.5" lengthAdjust="spacing" textLength="17.7083" x="520.3125" y="169.1366">BD</text><rect fill="none" filter="url(#f13tbg8kybko8c)" height="50.6083" rx="4.1667" ry="4.1667" style="stroke:#2196F3;stroke-width:1.0416666666666667;" width="53.125" x="502.6042" y="1098.0774"/><text fill="#2196F3" font-family="Verdana" font-size="12.5" lengthAdjust="spacing" textLength="17.7083" x="520.3125" y="1128.3529">BD</text><rect fill="none" filter="url(#f13tbg8kybko8c)" height="50.6083" rx="4.1667" ry="4.1667" style="stroke:#2196F3;stroke-width:1.0416666666666667;" width="75" x="652.6042" y="138.8611"/><text fill="#2196F3" font-family="Verdana" font-size="12.5" lengthAdjust="spacing" textLength="39.5833" x="670.3125" y="169.1366">Banco</text><rect fill="none" filter="url(#f13tbg8kybko8c)" height="50.6083" rx="4.1667" ry="4.1667" style="stroke:#2196F3;stroke-width:1.0416666666666667;" width="75" x="652.6042" y="1098.0774"/><text fill="#2196F3" font-family="Verdana" font-size="12.5" lengthAdjust="spacing" textLength="39.5833" x="670.3125" y="1128.3529">Banco</text><polygon fill="#2196F3" points="364.5833,242.1611,375,246.3277,364.5833,250.4944,368.75,246.3277" style="stroke:#2196F3;stroke-width:1.0416666666666667;"/><line style="stroke:#2196F3;stroke-width:3.125;" x1="97.9167" x2="370.8333" y1="246.3277" y2="246.3277"/><text fill="#222222" font-family="Verdana" font-size="12.5" lengthAdjust="spacing" textLength="218.75" x="115.625" y="231.2032">Buscar cliente e faturamento (rfc)</text><polygon fill="#2196F3" points="109.375,292.7694,98.9583,296.936,109.375,301.1027,105.2083,296.936" style="stroke:#2196F3;stroke-width:1.0416666666666667;"/><line style="stroke:#2196F3;stroke-width:3.125;" x1="103.125" x2="376.0417" y1="296.936" y2="296.936"/><text fill="#222222" font-family="Verdana" font-size="12.5" lengthAdjust="spacing" textLength="233.3333" x="126.0417" y="281.8115">Retorna cliente e faturamento (wcf)</text><polygon fill="#2196F3" points="518.2292,343.3777,528.6458,347.5444,518.2292,351.711,522.3958,347.5444" style="stroke:#2196F3;stroke-width:1.0416666666666667;"/><line style="stroke:#2196F3;stroke-width:3.125;" x1="97.9167" x2="524.4792" y1="347.5444" y2="347.5444"/><text fill="#222222" font-family="Verdana" font-size="12.5" lengthAdjust="spacing" textLength="328.125" x="115.625" y="332.4198">Consulta exist&#234;ncia de cliente e faturamento (tcp)</text><polygon fill="#2196F3" points="109.375,393.986,98.9583,398.1527,109.375,402.3193,105.2083,398.1527" style="stroke:#2196F3;stroke-width:1.0416666666666667;"/><line style="stroke:#2196F3;stroke-width:3.125;" x1="103.125" x2="529.6875" y1="398.1527" y2="398.1527"/><text fill="#222222" font-family="Verdana" font-size="12.5" lengthAdjust="spacing" textLength="318.75" x="126.0417" y="383.0282">Retorna cliente e/ou faturamento existente (tcp)</text><path d="M25,413.7777 L106.25,413.7777 L106.25,441.4693 L95.8333,451.886 L20.8333,451.886 L20.8333,417.9443 A4.1667,4.1667 0 0 1 25,413.7777 " fill="#FFFFFF" style="stroke:#666666;stroke-width:1.0416666666666667;"/><rect fill="none" height="566.4164" rx="4.1667" ry="4.1667" style="stroke:#2196F3;stroke-width:1.0416666666666667;" width="734.8958" x="20.8333" y="413.7777"/><text fill="#9C27B0" font-family="Verdana" font-size="12.5" font-weight="bold" lengthAdjust="spacing" textLength="17.7083" x="46.875" y="437.8031">alt</text><text fill="#222222" font-family="Verdana" font-size="12.5" font-weight="bold" lengthAdjust="spacing" textLength="175" x="132.2917" y="438.8448">[Faturamento n&#227;o existe]</text><polygon fill="#2196F3" points="518.2292,510.3943,528.6458,514.561,518.2292,518.7276,522.3958,514.561" style="stroke:#2196F3;stroke-width:1.0416666666666667;"/><line style="stroke:#2196F3;stroke-width:3.125;" x1="97.9167" x2="524.4792" y1="514.561" y2="514.561"/><text fill="#222222" font-family="Verdana" font-size="12.5" lengthAdjust="spacing" textLength="162.5" x="115.625" y="499.4364">Inserir faturamento (tcp)</text><path d="M35.4167,530.186 L116.6667,530.186 L116.6667,557.8776 L106.25,568.2943 L31.25,568.2943 L31.25,534.3526 A4.1667,4.1667 0 0 1 35.4167,530.186 " fill="#FFFFFF" style="stroke:#666666;stroke-width:1.0416666666666667;"/><rect fill="none" height="303.3915" rx="4.1667" ry="4.1667" style="stroke:#2196F3;stroke-width:1.0416666666666667;" width="714.0625" x="31.25" y="530.186"/><text fill="#9C27B0" font-family="Verdana" font-size="12.5" font-weight="bold" lengthAdjust="spacing" textLength="17.7083" x="57.2917" y="554.2114">alt</text><text fill="#222222" font-family="Verdana" font-size="12.5" font-weight="bold" lengthAdjust="spacing" textLength="135.4167" x="142.7083" y="555.2531">[Cliente n&#227;o existe]</text><polygon fill="#2196F3" points="518.2292,626.8026,528.6458,630.9692,518.2292,635.1359,522.3958,630.9692" style="stroke:#2196F3;stroke-width:1.0416666666666667;"/><line style="stroke:#2196F3;stroke-width:3.125;" x1="97.9167" x2="524.4792" y1="630.9692" y2="630.9692"/><text fill="#222222" font-family="Verdana" font-size="12.5" lengthAdjust="spacing" textLength="123.9583" x="115.625" y="615.8447">Inserir cliente (tcp)</text><polygon fill="#2196F3" points="518.2292,677.4109,528.6458,681.5776,518.2292,685.7442,522.3958,681.5776" style="stroke:#2196F3;stroke-width:1.0416666666666667;"/><line style="stroke:#2196F3;stroke-width:3.125;" x1="97.9167" x2="524.4792" y1="681.5776" y2="681.5776"/><text fill="#222222" font-family="Verdana" font-size="12.5" lengthAdjust="spacing" textLength="162.5" x="115.625" y="666.453">Inserir faturamento (tcp)</text><line style="stroke:#2196F3;stroke-width:1.0416666666666667;stroke-dasharray:2.0,2.0;" x1="31.25" x2="745.3125" y1="690.9526" y2="690.9526"/><text fill="#222222" font-family="Verdana" font-size="12.5" font-weight="bold" lengthAdjust="spacing" textLength="123.9583" x="46.875" y="713.9364">[Cliente j&#225; existe]</text><polygon fill="#2196F3" points="518.2292,793.6025,528.6458,797.7692,518.2292,801.9358,522.3958,797.7692" style="stroke:#2196F3;stroke-width:1.0416666666666667;"/><line style="stroke:#2196F3;stroke-width:3.125;" x1="97.9167" x2="524.4792" y1="797.7692" y2="797.7692"/><text fill="#222222" font-family="Verdana" font-size="12.5" lengthAdjust="spacing" textLength="138.5417" x="115.625" y="782.6447">Atualizar cliente (tcp)</text><path d="M535.4167,737.3942 L535.4167,820.7275 A4.1667,4.1667 0 0 0 539.5833,824.8942 L721.875,824.8942 A4.1667,4.1667 0 0 0 726.0417,820.7275 L726.0417,743.6442 L715.625,733.2275 L539.5833,733.2275 A4.1667,4.1667 0 0 0 535.4167,737.3942 " fill="none" filter="url(#f13tbg8kybko8c)" style="stroke:#9C27B0;stroke-width:1.0416666666666667;"/><path d="M715.625,733.2275 L715.625,741.5609 A2.0833,2.0833 0 0 0 717.7083,743.6442 L726.0417,743.6442 L715.625,733.2275 " fill="none" style="stroke:#9C27B0;stroke-width:1.0416666666666667;"/><text fill="#9C27B0" font-family="Verdana" font-size="12.5" lengthAdjust="spacing" textLength="143.75" x="552.0833" y="761.4197">O endere&#231;o do cliente</text><text fill="#9C27B0" font-family="Verdana" font-size="12.5" lengthAdjust="spacing" textLength="117.7083" x="552.0833" y="776.6113">&#233; necess&#225;rio para</text><text fill="#9C27B0" font-family="Verdana" font-size="12.5" lengthAdjust="spacing" textLength="113.5417" x="552.0833" y="791.803">o c&#225;lculo do valor</text><text fill="#9C27B0" font-family="Verdana" font-size="12.5" lengthAdjust="spacing" textLength="66.6667" x="552.0833" y="806.9946">do boleto.</text><polygon fill="#2196F3" points="518.2292,878.9775,528.6458,883.1441,518.2292,887.3108,522.3958,883.1441" style="stroke:#2196F3;stroke-width:1.0416666666666667;"/><line style="stroke:#2196F3;stroke-width:3.125;" x1="97.9167" x2="524.4792" y1="883.1441" y2="883.1441"/><text fill="#222222" font-family="Verdana" font-size="12.5" lengthAdjust="spacing" textLength="151.0417" x="115.625" y="868.0196">Criar faturamento (tcp)</text><line style="stroke:#2196F3;stroke-width:1.0416666666666667;stroke-dasharray:2.0,2.0;" x1="20.8333" x2="755.7292" y1="892.5191" y2="892.5191"/><text fill="#222222" font-family="Verdana" font-size="12.5" font-weight="bold" lengthAdjust="spacing" textLength="228.125" x="36.4583" y="915.5029">[Faturamento j&#225; existe (d&#250;vida)]</text><polygon fill="#2196F3" points="518.2292,967.6941,528.6458,971.8608,518.2292,976.0274,522.3958,971.8608" style="stroke:#2196F3;stroke-width:1.0416666666666667;"/><line style="stroke:#2196F3;stroke-width:3.125;" x1="97.9167" x2="524.4792" y1="971.8608" y2="971.8608"/><text fill="#222222" font-family="Verdana" font-size="12.5" lengthAdjust="spacing" textLength="177.0833" x="115.625" y="956.7362">Atualizar faturamento (tcp)</text><polygon fill="#2196F3" points="679.1667,1025.5941,689.5833,1029.7607,679.1667,1033.9274,683.3333,1029.7607" style="stroke:#2196F3;stroke-width:1.0416666666666667;"/><line style="stroke:#2196F3;stroke-width:3.125;" x1="97.9167" x2="685.4167" y1="1029.7607" y2="1029.7607"/><text fill="#222222" font-family="Verdana" font-size="12.5" lengthAdjust="spacing" textLength="319.7917" x="115.625" y="1014.6362">Gerar boleto (d&#250;vida: precisa retorno?)(rest API)</text><polygon fill="#2196F3" points="518.2292,1076.2024,528.6458,1080.3691,518.2292,1084.5357,522.3958,1080.3691" style="stroke:#2196F3;stroke-width:1.0416666666666667;"/><line style="stroke:#2196F3;stroke-width:3.125;" x1="97.9167" x2="524.4792" y1="1080.3691" y2="1080.3691"/><text fill="#222222" font-family="Verdana" font-size="12.5" lengthAdjust="spacing" textLength="297.9167" x="115.625" y="1065.2445">Inserir boleto (duvida: precisa retorno?) (tcp)</text><!--SRC=[ZLCnSXin3Epv2gJJ5Kvw5Sb8yYJZoXhx1J0FakcXo0i9EfdyHfF2apmXBJyMa7S-IxREewjumEvY0H8V-9vs13ja2WOlV69h72asR0ak3Mu3xX1QWblwdl9Vfmr2Xm5X9V3yb7_xabnwI-oZGiq-GF-jl6ECQzoYH322BlzA2PcDDXqw7e2tYtN9H-nE99UNmw50xj1ftrABhTGwWItf8wnIjIfSV2xoC8TbYbhyQ6l8CG711Zb9Y_BdOHOskb45AFYUE8SRQImudAByq9lcfSYXGU7A26AoagAV9l8mFHdNX1RhhW5rfF6UaKy-7V5haPggIWejmzU3l2kNrODK6TAKwoiNvIs4jzwgucee_rhj7CLdwxtQkQotFWgBRAJHp4FUd-jbmGcj-OMltC18T5vYmMplMKBNGAwbGFb9thaVAPB9Vy2HfXZpFXZVxuI41PFtLYTRyOzePHyaBEUxkYCVbGZM6dqNhdttBigMdPf0xVxmSbyc0BCs_tiqBJRgl3cSK1TNnpmXVACWuBwBiSOSka3QH8HGdwV_qim2HOR5-cfwBvvlTXHB4rg3d_y0]--></g></svg>