<?xml version="1.0" encoding="us-ascii" standalone="no"?><svg xmlns="http://www.w3.org/2000/svg" xmlns:xlink="http://www.w3.org/1999/xlink" contentStyleType="text/css" height="1131px" preserveAspectRatio="none" style="width:443px;height:1131px;background:#FFFFFF;" version="1.1" viewBox="0 0 443 1131" width="443px" zoomAndPan="magnify"><defs/><g><text fill="#000000" font-family="sans-serif" font-size="14" font-weight="bold" lengthAdjust="spacing" textLength="233" x="98" y="24.5332">Entidades dos Boletos da Editora</text><!--class Emissor--><g id="elem_Emissor"><rect codeLine="3" fill="#F1F1F1" height="118.4375" id="Emissor" rx="2.5" ry="2.5" style="stroke:#181818;stroke-width:0.5;" width="129" x="172.5" y="792.6094"/><ellipse cx="208.65" cy="808.6094" fill="#ADD1B2" rx="11" ry="11" style="stroke:#181818;stroke-width:1.0;"/><path d="M207.5094,809.4063 L207.5094,811.9063 L211.8375,811.9063 L211.8375,810.9844 Q211.8375,810.375 212.0797,810.1094 Q212.3219,809.8438 212.6969,809.8438 Q213.0719,809.8438 213.3063,810.1094 Q213.5406,810.375 213.5406,810.9844 L213.5406,813.6094 L205.5406,813.6094 Q204.9156,813.6094 204.6578,813.375 Q204.4,813.1406 204.4,812.75 Q204.4,812.375 204.6656,812.1406 Q204.9313,811.9063 205.5406,811.9063 L205.8063,811.9063 L205.8063,805.25 L205.5406,805.25 Q204.9156,805.25 204.6578,805.0156 Q204.4,804.7813 204.4,804.3906 Q204.4,804.0156 204.6578,803.7813 Q204.9156,803.5469 205.5406,803.5469 L213.1656,803.5469 L213.1656,806.1406 Q213.1656,806.75 212.9391,807.0078 Q212.7125,807.2656 212.3219,807.2656 Q211.9469,807.2656 211.7125,807.0078 Q211.4781,806.75 211.4781,806.1406 L211.4781,805.25 L207.5094,805.25 L207.5094,807.7031 L208.9938,807.7031 Q208.9938,807.0469 209.1188,806.8594 Q209.3844,806.4531 209.8531,806.4531 Q210.2281,806.4531 210.4625,806.7109 Q210.6969,806.9688 210.6969,807.5781 L210.6969,809.5469 Q210.6969,810.0938 210.5719,810.2813 Q210.3063,810.6719 209.8531,810.6719 Q209.3844,810.6719 209.1188,810.2656 Q208.9938,810.0781 208.9938,809.4063 L207.5094,809.4063 Z " fill="#000000"/><text fill="#000000" font-family="sans-serif" font-size="14" lengthAdjust="spacing" textLength="50" x="227.35" y="814.3379">Emissor</text><line style="stroke:#181818;stroke-width:0.5;" x1="173.5" x2="300.5" y1="824.6094" y2="824.6094"/><ellipse cx="183.5" cy="838.9141" fill="#000000" rx="3" ry="3" style="stroke:#000000;stroke-width:1.0;"/><text fill="#000000" font-family="sans-serif" font-size="14" lengthAdjust="spacing" textLength="78" x="192.5" y="843.1426">nome: string</text><ellipse cx="183.5" cy="856.5234" fill="#000000" rx="3" ry="3" style="stroke:#000000;stroke-width:1.0;"/><text fill="#000000" font-family="sans-serif" font-size="14" lengthAdjust="spacing" textLength="69" x="192.5" y="860.752">cnpj: string</text><ellipse cx="183.5" cy="874.1328" fill="#000000" rx="3" ry="3" style="stroke:#000000;stroke-width:1.0;"/><text fill="#000000" font-family="sans-serif" font-size="14" lengthAdjust="spacing" textLength="103" x="192.5" y="878.3613">endereco: string</text><ellipse cx="183.5" cy="891.7422" fill="#000000" rx="3" ry="3" style="stroke:#000000;stroke-width:1.0;"/><text fill="#000000" font-family="sans-serif" font-size="14" lengthAdjust="spacing" textLength="81" x="192.5" y="895.9707">conta: Conta</text><line style="stroke:#181818;stroke-width:0.5;" x1="173.5" x2="300.5" y1="903.0469" y2="903.0469"/></g><!--class Cliente--><g id="elem_Cliente"><rect codeLine="10" fill="#F1F1F1" height="136.0469" id="Cliente" rx="2.5" ry="2.5" style="stroke:#181818;stroke-width:0.5;" width="155" x="253.5" y="45.6094"/><ellipse cx="304.75" cy="61.6094" fill="#ADD1B2" rx="11" ry="11" style="stroke:#181818;stroke-width:1.0;"/><path d="M303.6094,62.4063 L303.6094,64.9063 L307.9375,64.9063 L307.9375,63.9844 Q307.9375,63.375 308.1797,63.1094 Q308.4219,62.8438 308.7969,62.8438 Q309.1719,62.8438 309.4063,63.1094 Q309.6406,63.375 309.6406,63.9844 L309.6406,66.6094 L301.6406,66.6094 Q301.0156,66.6094 300.7578,66.375 Q300.5,66.1406 300.5,65.75 Q300.5,65.375 300.7656,65.1406 Q301.0313,64.9063 301.6406,64.9063 L301.9063,64.9063 L301.9063,58.25 L301.6406,58.25 Q301.0156,58.25 300.7578,58.0156 Q300.5,57.7813 300.5,57.3906 Q300.5,57.0156 300.7578,56.7813 Q301.0156,56.5469 301.6406,56.5469 L309.2656,56.5469 L309.2656,59.1406 Q309.2656,59.75 309.0391,60.0078 Q308.8125,60.2656 308.4219,60.2656 Q308.0469,60.2656 307.8125,60.0078 Q307.5781,59.75 307.5781,59.1406 L307.5781,58.25 L303.6094,58.25 L303.6094,60.7031 L305.0938,60.7031 Q305.0938,60.0469 305.2188,59.8594 Q305.4844,59.4531 305.9531,59.4531 Q306.3281,59.4531 306.5625,59.7109 Q306.7969,59.9688 306.7969,60.5781 L306.7969,62.5469 Q306.7969,63.0938 306.6719,63.2813 Q306.4063,63.6719 305.9531,63.6719 Q305.4844,63.6719 305.2188,63.2656 Q305.0938,63.0781 305.0938,62.4063 L303.6094,62.4063 Z " fill="#000000"/><text fill="#000000" font-family="sans-serif" font-size="14" lengthAdjust="spacing" textLength="44" x="325.25" y="67.3379">Cliente</text><line style="stroke:#181818;stroke-width:0.5;" x1="254.5" x2="407.5" y1="77.6094" y2="77.6094"/><ellipse cx="264.5" cy="91.9141" fill="#000000" rx="3" ry="3" style="stroke:#000000;stroke-width:1.0;"/><text fill="#000000" font-family="sans-serif" font-size="14" lengthAdjust="spacing" textLength="78" x="273.5" y="96.1426">nome: string</text><ellipse cx="264.5" cy="109.5234" fill="#000000" rx="3" ry="3" style="stroke:#000000;stroke-width:1.0;"/><text fill="#000000" font-family="sans-serif" font-size="14" lengthAdjust="spacing" textLength="62" x="273.5" y="113.752">cpf: string</text><ellipse cx="264.5" cy="127.1328" fill="#000000" rx="3" ry="3" style="stroke:#000000;stroke-width:1.0;"/><text fill="#000000" font-family="sans-serif" font-size="14" lengthAdjust="spacing" textLength="129" x="273.5" y="131.3613">endereco: Endereco</text><ellipse cx="264.5" cy="144.7422" fill="#000000" rx="3" ry="3" style="stroke:#000000;stroke-width:1.0;"/><text fill="#000000" font-family="sans-serif" font-size="14" lengthAdjust="spacing" textLength="76" x="273.5" y="148.9707">email: string</text><text fill="#000000" font-family="sans-serif" font-size="14" lengthAdjust="spacing" textLength="94" x="273.5" y="166.5801">telefone: string</text><line style="stroke:#181818;stroke-width:0.5;" x1="254.5" x2="407.5" y1="173.6563" y2="173.6563"/></g><!--class Faturamento--><g id="elem_Faturamento"><rect codeLine="18" fill="#F1F1F1" height="118.4375" id="Faturamento" rx="2.5" ry="2.5" style="stroke:#181818;stroke-width:0.5;" width="119" x="143.5" y="286.1094"/><ellipse cx="161.2" cy="302.1094" fill="#ADD1B2" rx="11" ry="11" style="stroke:#181818;stroke-width:1.0;"/><path d="M160.0594,302.9063 L160.0594,305.4063 L164.3875,305.4063 L164.3875,304.4844 Q164.3875,303.875 164.6297,303.6094 Q164.8719,303.3438 165.2469,303.3438 Q165.6219,303.3438 165.8563,303.6094 Q166.0906,303.875 166.0906,304.4844 L166.0906,307.1094 L158.0906,307.1094 Q157.4656,307.1094 157.2078,306.875 Q156.95,306.6406 156.95,306.25 Q156.95,305.875 157.2156,305.6406 Q157.4813,305.4063 158.0906,305.4063 L158.3563,305.4063 L158.3563,298.75 L158.0906,298.75 Q157.4656,298.75 157.2078,298.5156 Q156.95,298.2813 156.95,297.8906 Q156.95,297.5156 157.2078,297.2813 Q157.4656,297.0469 158.0906,297.0469 L165.7156,297.0469 L165.7156,299.6406 Q165.7156,300.25 165.4891,300.5078 Q165.2625,300.7656 164.8719,300.7656 Q164.4969,300.7656 164.2625,300.5078 Q164.0281,300.25 164.0281,299.6406 L164.0281,298.75 L160.0594,298.75 L160.0594,301.2031 L161.5438,301.2031 Q161.5438,300.5469 161.6688,300.3594 Q161.9344,299.9531 162.4031,299.9531 Q162.7781,299.9531 163.0125,300.2109 Q163.2469,300.4688 163.2469,301.0781 L163.2469,303.0469 Q163.2469,303.5938 163.1219,303.7813 Q162.8563,304.1719 162.4031,304.1719 Q161.9344,304.1719 161.6688,303.7656 Q161.5438,303.5781 161.5438,302.9063 L160.0594,302.9063 Z " fill="#000000"/><text fill="#000000" font-family="sans-serif" font-size="14" lengthAdjust="spacing" textLength="81" x="175.8" y="307.8379">Faturamento</text><line style="stroke:#181818;stroke-width:0.5;" x1="144.5" x2="261.5" y1="318.1094" y2="318.1094"/><ellipse cx="154.5" cy="332.4141" fill="#000000" rx="3" ry="3" style="stroke:#000000;stroke-width:1.0;"/><text fill="#000000" font-family="sans-serif" font-size="14" lengthAdjust="spacing" textLength="65" x="163.5" y="336.6426">codigo: int</text><ellipse cx="154.5" cy="350.0234" fill="#000000" rx="3" ry="3" style="stroke:#000000;stroke-width:1.0;"/><text fill="#000000" font-family="sans-serif" font-size="14" lengthAdjust="spacing" textLength="64" x="163.5" y="354.252">data: date</text><ellipse cx="154.5" cy="367.6328" fill="#000000" rx="3" ry="3" style="stroke:#000000;stroke-width:1.0;"/><text fill="#000000" font-family="sans-serif" font-size="14" lengthAdjust="spacing" textLength="87" x="163.5" y="371.8613">valor: decimal</text><ellipse cx="154.5" cy="385.2422" fill="#000000" rx="3" ry="3" style="stroke:#000000;stroke-width:1.0;"/><text fill="#000000" font-family="sans-serif" font-size="14" lengthAdjust="spacing" textLength="93" x="163.5" y="389.4707">cliente: Cliente</text><line style="stroke:#181818;stroke-width:0.5;" x1="144.5" x2="261.5" y1="396.5469" y2="396.5469"/></g><!--class Boleto--><g id="elem_Boleto"><rect codeLine="25" fill="#F1F1F1" height="206.4844" id="Boleto" rx="2.5" ry="2.5" style="stroke:#181818;stroke-width:0.5;" width="191" x="125.5" y="508.6094"/><ellipse cx="196.75" cy="524.6094" fill="#ADD1B2" rx="11" ry="11" style="stroke:#181818;stroke-width:1.0;"/><path d="M195.6094,525.4063 L195.6094,527.9063 L199.9375,527.9063 L199.9375,526.9844 Q199.9375,526.375 200.1797,526.1094 Q200.4219,525.8438 200.7969,525.8438 Q201.1719,525.8438 201.4063,526.1094 Q201.6406,526.375 201.6406,526.9844 L201.6406,529.6094 L193.6406,529.6094 Q193.0156,529.6094 192.7578,529.375 Q192.5,529.1406 192.5,528.75 Q192.5,528.375 192.7656,528.1406 Q193.0313,527.9063 193.6406,527.9063 L193.9063,527.9063 L193.9063,521.25 L193.6406,521.25 Q193.0156,521.25 192.7578,521.0156 Q192.5,520.7813 192.5,520.3906 Q192.5,520.0156 192.7578,519.7813 Q193.0156,519.5469 193.6406,519.5469 L201.2656,519.5469 L201.2656,522.1406 Q201.2656,522.75 201.0391,523.0078 Q200.8125,523.2656 200.4219,523.2656 Q200.0469,523.2656 199.8125,523.0078 Q199.5781,522.75 199.5781,522.1406 L199.5781,521.25 L195.6094,521.25 L195.6094,523.7031 L197.0938,523.7031 Q197.0938,523.0469 197.2188,522.8594 Q197.4844,522.4531 197.9531,522.4531 Q198.3281,522.4531 198.5625,522.7109 Q198.7969,522.9688 198.7969,523.5781 L198.7969,525.5469 Q198.7969,526.0938 198.6719,526.2813 Q198.4063,526.6719 197.9531,526.6719 Q197.4844,526.6719 197.2188,526.2656 Q197.0938,526.0781 197.0938,525.4063 L195.6094,525.4063 Z " fill="#000000"/><text fill="#000000" font-family="sans-serif" font-size="14" lengthAdjust="spacing" textLength="40" x="217.25" y="530.3379">Boleto</text><line style="stroke:#181818;stroke-width:0.5;" x1="126.5" x2="315.5" y1="540.6094" y2="540.6094"/><ellipse cx="136.5" cy="554.9141" fill="#000000" rx="3" ry="3" style="stroke:#000000;stroke-width:1.0;"/><text fill="#000000" font-family="sans-serif" font-size="14" lengthAdjust="spacing" textLength="91" x="145.5" y="559.1426">numero: string</text><ellipse cx="136.5" cy="572.5234" fill="#000000" rx="3" ry="3" style="stroke:#000000;stroke-width:1.0;"/><text fill="#000000" font-family="sans-serif" font-size="14" lengthAdjust="spacing" textLength="87" x="145.5" y="576.752">valor: decimal</text><text fill="#000000" font-family="sans-serif" font-size="14" lengthAdjust="spacing" textLength="87" x="145.5" y="594.3613">juros: decimal</text><text fill="#000000" font-family="sans-serif" font-size="14" lengthAdjust="spacing" textLength="90" x="145.5" y="611.9707">multa: decimal</text><ellipse cx="136.5" cy="625.3516" fill="#000000" rx="3" ry="3" style="stroke:#000000;stroke-width:1.0;"/><text fill="#000000" font-family="sans-serif" font-size="14" lengthAdjust="spacing" textLength="116" x="145.5" y="629.5801">dataInclusao: date</text><ellipse cx="136.5" cy="642.9609" fill="#000000" rx="3" ry="3" style="stroke:#000000;stroke-width:1.0;"/><text fill="#000000" font-family="sans-serif" font-size="14" lengthAdjust="spacing" textLength="138" x="145.5" y="647.1895">dataVencimento: date</text><ellipse cx="136.5" cy="660.5703" fill="#000000" rx="3" ry="3" style="stroke:#000000;stroke-width:1.0;"/><text fill="#000000" font-family="sans-serif" font-size="14" lengthAdjust="spacing" textLength="86" x="145.5" y="664.7988">status: Status</text><ellipse cx="136.5" cy="678.1797" fill="#000000" rx="3" ry="3" style="stroke:#000000;stroke-width:1.0;"/><text fill="#000000" font-family="sans-serif" font-size="14" lengthAdjust="spacing" textLength="107" x="145.5" y="682.4082">emissor: Emissor</text><ellipse cx="136.5" cy="695.7891" fill="#000000" rx="3" ry="3" style="stroke:#000000;stroke-width:1.0;"/><text fill="#000000" font-family="sans-serif" font-size="14" lengthAdjust="spacing" textLength="165" x="145.5" y="700.0176">faturamento: Faturamento</text><line style="stroke:#181818;stroke-width:0.5;" x1="126.5" x2="315.5" y1="707.0938" y2="707.0938"/></g><!--class Historico--><g id="elem_Historico"><rect codeLine="37" fill="#F1F1F1" height="118.4375" id="Historico" rx="2.5" ry="2.5" style="stroke:#181818;stroke-width:0.5;" width="191" x="10.5" y="54.6094"/><ellipse cx="74.75" cy="70.6094" fill="#ADD1B2" rx="11" ry="11" style="stroke:#181818;stroke-width:1.0;"/><path d="M73.6094,71.4063 L73.6094,73.9063 L77.9375,73.9063 L77.9375,72.9844 Q77.9375,72.375 78.1797,72.1094 Q78.4219,71.8438 78.7969,71.8438 Q79.1719,71.8438 79.4063,72.1094 Q79.6406,72.375 79.6406,72.9844 L79.6406,75.6094 L71.6406,75.6094 Q71.0156,75.6094 70.7578,75.375 Q70.5,75.1406 70.5,74.75 Q70.5,74.375 70.7656,74.1406 Q71.0313,73.9063 71.6406,73.9063 L71.9063,73.9063 L71.9063,67.25 L71.6406,67.25 Q71.0156,67.25 70.7578,67.0156 Q70.5,66.7813 70.5,66.3906 Q70.5,66.0156 70.7578,65.7813 Q71.0156,65.5469 71.6406,65.5469 L79.2656,65.5469 L79.2656,68.1406 Q79.2656,68.75 79.0391,69.0078 Q78.8125,69.2656 78.4219,69.2656 Q78.0469,69.2656 77.8125,69.0078 Q77.5781,68.75 77.5781,68.1406 L77.5781,67.25 L73.6094,67.25 L73.6094,69.7031 L75.0938,69.7031 Q75.0938,69.0469 75.2188,68.8594 Q75.4844,68.4531 75.9531,68.4531 Q76.3281,68.4531 76.5625,68.7109 Q76.7969,68.9688 76.7969,69.5781 L76.7969,71.5469 Q76.7969,72.0938 76.6719,72.2813 Q76.4063,72.6719 75.9531,72.6719 Q75.4844,72.6719 75.2188,72.2656 Q75.0938,72.0781 75.0938,71.4063 L73.6094,71.4063 Z " fill="#000000"/><text fill="#000000" font-family="sans-serif" font-size="14" lengthAdjust="spacing" textLength="54" x="95.25" y="76.3379">Historico</text><line style="stroke:#181818;stroke-width:0.5;" x1="11.5" x2="200.5" y1="86.6094" y2="86.6094"/><ellipse cx="21.5" cy="100.9141" fill="#000000" rx="3" ry="3" style="stroke:#000000;stroke-width:1.0;"/><text fill="#000000" font-family="sans-serif" font-size="14" lengthAdjust="spacing" textLength="86" x="30.5" y="105.1426">Status: status</text><ellipse cx="21.5" cy="118.5234" fill="#000000" rx="3" ry="3" style="stroke:#000000;stroke-width:1.0;"/><text fill="#000000" font-family="sans-serif" font-size="14" lengthAdjust="spacing" textLength="117" x="30.5" y="122.752">observacao: string</text><ellipse cx="21.5" cy="136.1328" fill="#000000" rx="3" ry="3" style="stroke:#000000;stroke-width:1.0;"/><text fill="#000000" font-family="sans-serif" font-size="14" lengthAdjust="spacing" textLength="124" x="30.5" y="140.3613">data_inclusao: date</text><ellipse cx="21.5" cy="153.7422" fill="#000000" rx="3" ry="3" style="stroke:#000000;stroke-width:1.0;"/><text fill="#000000" font-family="sans-serif" font-size="14" lengthAdjust="spacing" textLength="165" x="30.5" y="157.9707">faturamento: Faturamento</text><line style="stroke:#181818;stroke-width:0.5;" x1="11.5" x2="200.5" y1="165.0469" y2="165.0469"/></g><!--class Endereco--><g id="elem_Endereco"><rect codeLine="44" fill="#F1F1F1" height="171.2656" id="Endereco" rx="2.5" ry="2.5" style="stroke:#181818;stroke-width:0.5;" width="138" x="298" y="259.6094"/><ellipse cx="333.25" cy="275.6094" fill="#ADD1B2" rx="11" ry="11" style="stroke:#181818;stroke-width:1.0;"/><path d="M332.1094,276.4063 L332.1094,278.9063 L336.4375,278.9063 L336.4375,277.9844 Q336.4375,277.375 336.6797,277.1094 Q336.9219,276.8438 337.2969,276.8438 Q337.6719,276.8438 337.9063,277.1094 Q338.1406,277.375 338.1406,277.9844 L338.1406,280.6094 L330.1406,280.6094 Q329.5156,280.6094 329.2578,280.375 Q329,280.1406 329,279.75 Q329,279.375 329.2656,279.1406 Q329.5313,278.9063 330.1406,278.9063 L330.4063,278.9063 L330.4063,272.25 L330.1406,272.25 Q329.5156,272.25 329.2578,272.0156 Q329,271.7813 329,271.3906 Q329,271.0156 329.2578,270.7813 Q329.5156,270.5469 330.1406,270.5469 L337.7656,270.5469 L337.7656,273.1406 Q337.7656,273.75 337.5391,274.0078 Q337.3125,274.2656 336.9219,274.2656 Q336.5469,274.2656 336.3125,274.0078 Q336.0781,273.75 336.0781,273.1406 L336.0781,272.25 L332.1094,272.25 L332.1094,274.7031 L333.5938,274.7031 Q333.5938,274.0469 333.7188,273.8594 Q333.9844,273.4531 334.4531,273.4531 Q334.8281,273.4531 335.0625,273.7109 Q335.2969,273.9688 335.2969,274.5781 L335.2969,276.5469 Q335.2969,277.0938 335.1719,277.2813 Q334.9063,277.6719 334.4531,277.6719 Q333.9844,277.6719 333.7188,277.2656 Q333.5938,277.0781 333.5938,276.4063 L332.1094,276.4063 Z " fill="#000000"/><text fill="#000000" font-family="sans-serif" font-size="14" lengthAdjust="spacing" textLength="61" x="351.75" y="281.3379">Endereco</text><line style="stroke:#181818;stroke-width:0.5;" x1="299" x2="435" y1="291.6094" y2="291.6094"/><ellipse cx="309" cy="305.9141" fill="#000000" rx="3" ry="3" style="stroke:#000000;stroke-width:1.0;"/><text fill="#000000" font-family="sans-serif" font-size="14" lengthAdjust="spacing" textLength="112" x="318" y="310.1426">logradouro: string</text><ellipse cx="309" cy="323.5234" fill="#000000" rx="3" ry="3" style="stroke:#000000;stroke-width:1.0;"/><text fill="#000000" font-family="sans-serif" font-size="14" lengthAdjust="spacing" textLength="91" x="318" y="327.752">numero: string</text><text fill="#000000" font-family="sans-serif" font-size="14" lengthAdjust="spacing" textLength="80" x="318" y="345.3613">bairro: string</text><ellipse cx="309" cy="358.7422" fill="#000000" rx="3" ry="3" style="stroke:#000000;stroke-width:1.0;"/><text fill="#000000" font-family="sans-serif" font-size="14" lengthAdjust="spacing" textLength="85" x="318" y="362.9707">cidade: string</text><ellipse cx="309" cy="376.3516" fill="#000000" rx="3" ry="3" style="stroke:#000000;stroke-width:1.0;"/><text fill="#000000" font-family="sans-serif" font-size="14" lengthAdjust="spacing" textLength="86" x="318" y="380.5801">estado: string</text><ellipse cx="309" cy="393.9609" fill="#000000" rx="3" ry="3" style="stroke:#000000;stroke-width:1.0;"/><text fill="#000000" font-family="sans-serif" font-size="14" lengthAdjust="spacing" textLength="66" x="318" y="398.1895">cep: string</text><ellipse cx="309" cy="411.5703" fill="#000000" rx="3" ry="3" style="stroke:#000000;stroke-width:1.0;"/><text fill="#000000" font-family="sans-serif" font-size="14" lengthAdjust="spacing" textLength="93" x="318" y="415.7988">cliente: Cliente</text><line style="stroke:#181818;stroke-width:0.5;" x1="299" x2="435" y1="422.875" y2="422.875"/></g><!--class Conta--><g id="elem_Conta"><rect codeLine="54" fill="#F1F1F1" height="136.0469" id="Conta" rx="2.5" ry="2.5" style="stroke:#181818;stroke-width:0.5;" width="161" x="156.5" y="988.6094"/><ellipse cx="213.75" cy="1004.6094" fill="#ADD1B2" rx="11" ry="11" style="stroke:#181818;stroke-width:1.0;"/><path d="M212.6094,1005.4063 L212.6094,1007.9063 L216.9375,1007.9063 L216.9375,1006.9844 Q216.9375,1006.375 217.1797,1006.1094 Q217.4219,1005.8438 217.7969,1005.8438 Q218.1719,1005.8438 218.4063,1006.1094 Q218.6406,1006.375 218.6406,1006.9844 L218.6406,1009.6094 L210.6406,1009.6094 Q210.0156,1009.6094 209.7578,1009.375 Q209.5,1009.1406 209.5,1008.75 Q209.5,1008.375 209.7656,1008.1406 Q210.0313,1007.9063 210.6406,1007.9063 L210.9063,1007.9063 L210.9063,1001.25 L210.6406,1001.25 Q210.0156,1001.25 209.7578,1001.0156 Q209.5,1000.7813 209.5,1000.3906 Q209.5,1000.0156 209.7578,999.7813 Q210.0156,999.5469 210.6406,999.5469 L218.2656,999.5469 L218.2656,1002.1406 Q218.2656,1002.75 218.0391,1003.0078 Q217.8125,1003.2656 217.4219,1003.2656 Q217.0469,1003.2656 216.8125,1003.0078 Q216.5781,1002.75 216.5781,1002.1406 L216.5781,1001.25 L212.6094,1001.25 L212.6094,1003.7031 L214.0938,1003.7031 Q214.0938,1003.0469 214.2188,1002.8594 Q214.4844,1002.4531 214.9531,1002.4531 Q215.3281,1002.4531 215.5625,1002.7109 Q215.7969,1002.9688 215.7969,1003.5781 L215.7969,1005.5469 Q215.7969,1006.0938 215.6719,1006.2813 Q215.4063,1006.6719 214.9531,1006.6719 Q214.4844,1006.6719 214.2188,1006.2656 Q214.0938,1006.0781 214.0938,1005.4063 L212.6094,1005.4063 Z " fill="#000000"/><text fill="#000000" font-family="sans-serif" font-size="14" lengthAdjust="spacing" textLength="38" x="234.25" y="1010.3379">Conta</text><line style="stroke:#181818;stroke-width:0.5;" x1="157.5" x2="316.5" y1="1020.6094" y2="1020.6094"/><ellipse cx="167.5" cy="1034.9141" fill="#000000" rx="3" ry="3" style="stroke:#000000;stroke-width:1.0;"/><text fill="#000000" font-family="sans-serif" font-size="14" lengthAdjust="spacing" textLength="93" x="176.5" y="1039.1426">agencia: string</text><text fill="#000000" font-family="sans-serif" font-size="14" lengthAdjust="spacing" textLength="135" x="176.5" y="1056.752">digito_agencia: string</text><ellipse cx="167.5" cy="1070.1328" fill="#000000" rx="3" ry="3" style="stroke:#000000;stroke-width:1.0;"/><text fill="#000000" font-family="sans-serif" font-size="14" lengthAdjust="spacing" textLength="91" x="176.5" y="1074.3613">numero: string</text><ellipse cx="167.5" cy="1087.7422" fill="#000000" rx="3" ry="3" style="stroke:#000000;stroke-width:1.0;"/><text fill="#000000" font-family="sans-serif" font-size="14" lengthAdjust="spacing" textLength="133" x="176.5" y="1091.9707">digito_numero: string</text><ellipse cx="167.5" cy="1105.3516" fill="#000000" rx="3" ry="3" style="stroke:#000000;stroke-width:1.0;"/><text fill="#000000" font-family="sans-serif" font-size="14" lengthAdjust="spacing" textLength="116" x="176.5" y="1109.5801">beneficiario: string</text><line style="stroke:#181818;stroke-width:0.5;" x1="157.5" x2="316.5" y1="1116.6563" y2="1116.6563"/></g><!--class Status--><g id="elem_Status"><rect codeLine="62" fill="#F1F1F1" height="65.6094" id="Status" rx="2.5" ry="2.5" style="stroke:#181818;stroke-width:0.5;" width="130" x="7" y="818.6094"/><ellipse cx="48.1" cy="834.6094" fill="#ADD1B2" rx="11" ry="11" style="stroke:#181818;stroke-width:1.0;"/><path d="M46.9594,835.4063 L46.9594,837.9063 L51.2875,837.9063 L51.2875,836.9844 Q51.2875,836.375 51.5297,836.1094 Q51.7719,835.8438 52.1469,835.8438 Q52.5219,835.8438 52.7563,836.1094 Q52.9906,836.375 52.9906,836.9844 L52.9906,839.6094 L44.9906,839.6094 Q44.3656,839.6094 44.1078,839.375 Q43.85,839.1406 43.85,838.75 Q43.85,838.375 44.1156,838.1406 Q44.3813,837.9063 44.9906,837.9063 L45.2563,837.9063 L45.2563,831.25 L44.9906,831.25 Q44.3656,831.25 44.1078,831.0156 Q43.85,830.7813 43.85,830.3906 Q43.85,830.0156 44.1078,829.7813 Q44.3656,829.5469 44.9906,829.5469 L52.6156,829.5469 L52.6156,832.1406 Q52.6156,832.75 52.3891,833.0078 Q52.1625,833.2656 51.7719,833.2656 Q51.3969,833.2656 51.1625,833.0078 Q50.9281,832.75 50.9281,832.1406 L50.9281,831.25 L46.9594,831.25 L46.9594,833.7031 L48.4438,833.7031 Q48.4438,833.0469 48.5688,832.8594 Q48.8344,832.4531 49.3031,832.4531 Q49.6781,832.4531 49.9125,832.7109 Q50.1469,832.9688 50.1469,833.5781 L50.1469,835.5469 Q50.1469,836.0938 50.0219,836.2813 Q49.7563,836.6719 49.3031,836.6719 Q48.8344,836.6719 48.5688,836.2656 Q48.4438,836.0781 48.4438,835.4063 L46.9594,835.4063 Z " fill="#000000"/><text fill="#000000" font-family="sans-serif" font-size="14" lengthAdjust="spacing" textLength="40" x="67.9" y="840.3379">Status</text><line style="stroke:#181818;stroke-width:0.5;" x1="8" x2="136" y1="850.6094" y2="850.6094"/><ellipse cx="18" cy="864.9141" fill="#000000" rx="3" ry="3" style="stroke:#000000;stroke-width:1.0;"/><text fill="#000000" font-family="sans-serif" font-size="14" lengthAdjust="spacing" textLength="104" x="27" y="869.1426">descricao: string</text><line style="stroke:#181818;stroke-width:0.5;" x1="8" x2="136" y1="876.2188" y2="876.2188"/></g><!--link Emissor to Conta--><g id="link_Emissor_Conta"><path codeLine="66" d="M237,918.7794 C237,943.0294 237,955.3494 237,980.4794 " fill="none" id="Emissor-Conta" style="stroke:#181818;stroke-width:1.0;"/><line style="stroke:#181818;stroke-width:1.0;" x1="233" x2="241" y1="914.7794" y2="914.7794"/><line style="stroke:#181818;stroke-width:1.0;" x1="233" x2="241" y1="917.7794" y2="917.7794"/><line style="stroke:#181818;stroke-width:1.0;" x1="237" x2="237" y1="918.7794" y2="910.7794"/><line style="stroke:#181818;stroke-width:1.0;" x1="241" x2="233" y1="984.4794" y2="984.4794"/><line style="stroke:#181818;stroke-width:1.0;" x1="241" x2="233" y1="981.4794" y2="981.4794"/><line style="stroke:#181818;stroke-width:1.0;" x1="237" x2="237" y1="980.4794" y2="988.4794"/><polygon fill="#000000" points="242,954.7852,244.9389,945.7401,239.0611,945.7401,242,954.7852" style="stroke:#000000;stroke-width:1.0;"/><text fill="#000000" font-family="sans-serif" font-size="13" lengthAdjust="spacing" textLength="38" x="251" y="955.1045">possui</text></g><!--link Cliente to Endereco--><g id="link_Cliente_Endereco"><path codeLine="67" d="M342.7978,189.823 C346.5878,214.023 348.4507,225.8359 352.4507,251.3459 " fill="none" id="Cliente-Endereco" style="stroke:#181818;stroke-width:1.0;"/><line style="stroke:#181818;stroke-width:1.0;" x1="338.2271" x2="346.1307" y1="186.4901" y2="185.2523"/><line style="stroke:#181818;stroke-width:1.0;" x1="338.6912" x2="346.5949" y1="189.454" y2="188.2162"/><line style="stroke:#181818;stroke-width:1.0;" x1="342.7978" x2="341.56" y1="189.823" y2="181.9194"/><line style="stroke:#181818;stroke-width:1.0;" x1="357.0221" x2="349.1187" y1="254.678" y2="255.9173"/><line style="stroke:#181818;stroke-width:1.0;" x1="356.5574" x2="348.6539" y1="251.7142" y2="252.9535"/><line style="stroke:#181818;stroke-width:1.0;" x1="352.4507" x2="353.69" y1="251.3459" y2="259.2494"/><polygon fill="#000000" points="354.775,225.7247,356.2764,216.3334,350.4696,217.2445,354.775,225.7247" style="stroke:#000000;stroke-width:1.0;"/><text fill="#000000" font-family="sans-serif" font-size="13" lengthAdjust="spacing" textLength="29" x="363" y="226.1045">mora</text></g><!--link Cliente to Faturamento--><g id="link_Cliente_Faturamento"><path codeLine="68" d="M289.5626,188.9058 C271.1926,221.8358 261.9531,238.3865 244.3131,270.0365 " fill="none" id="Cliente-Faturamento" style="stroke:#181818;stroke-width:1.0;"/><line style="stroke:#181818;stroke-width:1.0;" x1="288.0181" x2="295.0045" y1="183.4639" y2="187.3613"/><line style="stroke:#181818;stroke-width:1.0;" x1="286.5566" x2="293.543" y1="186.0838" y2="189.9812"/><line style="stroke:#181818;stroke-width:1.0;" x1="289.5626" x2="293.46" y1="188.9058" y2="181.9194"/><line style="stroke:#181818;stroke-width:1.0;" x1="239.4447" x2="240.791" y1="278.7714" y2="288.6804"/><line style="stroke:#181818;stroke-width:1.0;" x1="239.4447" x2="230.309" y1="278.7714" y2="282.8383"/><line style="stroke:#181818;stroke-width:1.0;" x1="239.4447" x2="235.55" y1="278.7714" y2="285.7594"/><ellipse cx="242.3657" cy="273.5305" fill="none" rx="4" ry="4" style="stroke:#181818;stroke-width:1.0;"/><polygon fill="#000000" points="277.5645,225.1519,284.5371,218.6839,279.4036,215.8208,277.5645,225.1519" style="stroke:#000000;stroke-width:1.0;"/><text fill="#000000" font-family="sans-serif" font-size="13" lengthAdjust="spacing" textLength="38" x="289" y="226.1045">realiza</text></g><!--link Faturamento to Boleto--><g id="link_Faturamento_Boleto"><path codeLine="69" d="M207.4932,412.1409 C209.5732,442.7009 211.0959,465.1279 213.5059,500.4779 " fill="none" id="Faturamento-Boleto" style="stroke:#181818;stroke-width:1.0;"/><line style="stroke:#181818;stroke-width:1.0;" x1="203.2309" x2="211.2124" y1="408.4218" y2="407.8785"/><line style="stroke:#181818;stroke-width:1.0;" x1="203.4346" x2="211.4161" y1="411.4148" y2="410.8716"/><line style="stroke:#181818;stroke-width:1.0;" x1="207.4932" x2="206.95" y1="412.1409" y2="404.1594"/><line style="stroke:#181818;stroke-width:1.0;" x1="217.7687" x2="209.7872" y1="504.1966" y2="504.7407"/><line style="stroke:#181818;stroke-width:1.0;" x1="217.5646" x2="209.5831" y1="501.2035" y2="501.7477"/><line style="stroke:#181818;stroke-width:1.0;" x1="213.5059" x2="214.05" y1="500.4779" y2="508.4594"/><polygon fill="#000000" points="217.3395,474.7736,219.6575,465.5498,213.7932,465.949,217.3395,474.7736" style="stroke:#000000;stroke-width:1.0;"/><text fill="#000000" font-family="sans-serif" font-size="13" lengthAdjust="spacing" textLength="25" x="226" y="475.1045">gera</text></g><!--link Boleto to Status--><g id="link_Boleto_Status"><path codeLine="70" d="M152.7051,721.7003 C129.3551,759.0003 118.4149,776.4847 101.6849,803.1947 " fill="none" id="Boleto-Status" style="stroke:#181818;stroke-width:1.0;"/><line style="stroke:#181818;stroke-width:1.0;" x1="151.4371" x2="158.218" y1="716.1874" y2="720.4323"/><line style="stroke:#181818;stroke-width:1.0;" x1="149.8453" x2="156.6262" y1="718.7302" y2="722.9751"/><line style="stroke:#181818;stroke-width:1.0;" x1="152.7051" x2="156.95" y1="721.7003" y2="714.9194"/><line style="stroke:#181818;stroke-width:1.0;" x1="96.3766" x2="97.2149" y1="811.6695" y2="821.6343"/><line style="stroke:#181818;stroke-width:1.0;" x1="96.3766" x2="87.0451" y1="811.6695" y2="815.2644"/><line style="stroke:#181818;stroke-width:1.0;" x1="96.3766" x2="92.13" y1="811.6695" y2="818.4494"/><ellipse cx="99.5616" cy="806.5846" fill="none" rx="4" ry="4" style="stroke:#181818;stroke-width:1.0;"/><polygon fill="#000000" points="140.3468,758.0231,147.6375,751.9161,142.6555,748.797,140.3468,758.0231" style="stroke:#000000;stroke-width:1.0;"/><text fill="#000000" font-family="sans-serif" font-size="13" lengthAdjust="spacing" textLength="25" x="152" y="759.1045">est&#225;</text></g><!--link Boleto to Emissor--><g id="link_Boleto_Emissor"><path codeLine="71" d="M228.417,722.9013 C230.197,749.3613 230.9729,760.9774 232.5429,784.3074 " fill="none" id="Boleto-Emissor" style="stroke:#181818;stroke-width:1.0;"/><line style="stroke:#181818;stroke-width:1.0;" x1="224.1575" x2="232.1395" y1="719.1788" y2="718.6419"/><line style="stroke:#181818;stroke-width:1.0;" x1="224.3589" x2="232.3408" y1="722.1721" y2="721.6351"/><line style="stroke:#181818;stroke-width:1.0;" x1="228.417" x2="227.88" y1="722.9013" y2="714.9194"/><line style="stroke:#181818;stroke-width:1.0;" x1="236.8024" x2="228.8205" y1="788.0298" y2="788.567"/><line style="stroke:#181818;stroke-width:1.0;" x1="236.601" x2="228.619" y1="785.0366" y2="785.5737"/><line style="stroke:#181818;stroke-width:1.0;" x1="232.5429" x2="233.08" y1="784.3074" y2="792.2894"/><polygon fill="#000000" points="236.3352,758.7739,238.6611,749.5521,232.7965,749.9462,236.3352,758.7739" style="stroke:#000000;stroke-width:1.0;"/><text fill="#000000" font-family="sans-serif" font-size="13" lengthAdjust="spacing" textLength="43" x="245" y="759.1045">cont&#233;m</text></g><!--link Historico to Faturamento--><g id="link_Historico_Faturamento"><path codeLine="72" d="M133.7146,180.1882 C148.3646,214.8482 160.6664,243.9401 175.3064,278.5901 " fill="none" id="Historico-Faturamento" style="stroke:#181818;stroke-width:1.0;"/><line style="stroke:#181818;stroke-width:1.0;" x1="128.4729" x2="135.8417" y1="178.0611" y2="174.9465"/><line style="stroke:#181818;stroke-width:1.0;" x1="129.6409" x2="137.0097" y1="180.8244" y2="177.7098"/><line style="stroke:#181818;stroke-width:1.0;" x1="133.7146" x2="130.6" y1="180.1882" y2="172.8194"/><line style="stroke:#181818;stroke-width:1.0;" x1="180.5478" x2="173.1786" y1="280.718" y2="283.8315"/><line style="stroke:#181818;stroke-width:1.0;" x1="179.3802" x2="172.011" y1="277.9545" y2="281.0681"/><line style="stroke:#181818;stroke-width:1.0;" x1="175.3064" x2="178.42" y1="278.5901" y2="285.9594"/><polygon fill="#000000" points="161.9466,225.3907,161.1322,215.915,155.7181,218.2034,161.9466,225.3907" style="stroke:#000000;stroke-width:1.0;"/><text fill="#000000" font-family="sans-serif" font-size="13" lengthAdjust="spacing" textLength="43" x="169" y="226.1045">registra</text></g><!--link Historico to Status--><g id="link_Historico_Status"><path codeLine="73" d="M102.9506,180.6608 C96.1406,327.9808 79.5696,686.6885 74.3196,800.4785 " fill="none" id="Historico-Status" style="stroke:#181818;stroke-width:1.0;"/><line style="stroke:#181818;stroke-width:1.0;" x1="99.1396" x2="107.131" y1="176.4804" y2="176.8498"/><line style="stroke:#181818;stroke-width:1.0;" x1="99.001" x2="106.9925" y1="179.4772" y2="179.8466"/><line style="stroke:#181818;stroke-width:1.0;" x1="102.9506" x2="103.32" y1="180.6608" y2="172.6694"/><line style="stroke:#181818;stroke-width:1.0;" x1="73.8587" x2="79.4836" y1="810.4679" y2="818.7359"/><line style="stroke:#181818;stroke-width:1.0;" x1="73.8587" x2="67.4964" y1="810.4679" y2="818.1828"/><line style="stroke:#181818;stroke-width:1.0;" x1="73.8587" x2="73.49" y1="810.4679" y2="818.4594"/><ellipse cx="74.1352" cy="804.4743" fill="none" rx="4" ry="4" style="stroke:#181818;stroke-width:1.0;"/><polygon fill="#000000" points="94.7693,474.7798,98.1224,465.88,92.2509,465.6088,94.7693,474.7798" style="stroke:#000000;stroke-width:1.0;"/><text fill="#000000" font-family="sans-serif" font-size="13" lengthAdjust="spacing" textLength="25" x="104" y="475.1045">est&#225;</text></g><!--SRC=[VLJDRkGW3BxdAJYlr1VWi8UjfkgUA-srye0dSWLu1AHIszc7sMEVeozMav1CWZARGm3xm_xyHwRiK1r29WiMaxASr2zsc6Mre0wMCaVeEXH4VbC7JobnL1-Takz7O8zQfHmfz9F4XFFBLeB1OaJ33Ov31gtkor84tT_5nxqZsU5_V9nFjrmSwaxLh-ezaDjSoUZmnE5g-Eh-0V8GmSk9Pmg6BVLYdKAU11OAUVdZT7u5nr44QCY3gvUcCFGSpyh5bE0bmC5ZRDApO_1bY9os8Z-uaSVQRQ7sEnWt9E0rnIB_Wq6G9RAr9cM9M2m_ZUkSiR7EUYxu93rTKwFNULg5zaX96eRC4jrJjPvMrlcOCBw2WIRgml6PTiZVSjnqpbBzwjjn7y7oq6Pt9-D7eDZ2p3WJJQj97BR5uRaHt2xzrF2L7_Ib8B2vB9qc8_Uyfzhjb8hVKnqnu8d4IYJUQVIfCZCN6NuZTOCDSXxto-NkxdAfvBKwSqe3gP_TFAfLl-HVAo-lHWFWZqtfj8e8ZjuBR2sljkgCQDNZQAcUgw7ANIkfnzU_hReGgRorAk_CrwSNnBKpAwWbqmjWTBKWRpdx1W00]--></g></svg>